<svg width="329" height="104" viewBox="0 0 329 104" fill="none" xmlns="http://www.w3.org/2000/svg">
<path d="M31.04 95.48C29.5467 95.48 28.0067 95.2 26.42 94.64C24.8333 94.08 23.5267 93.1933 22.5 91.98C21.5667 90.86 21.2867 89.4133 21.66 87.64C22.0333 85.8667 23.34 84.0933 25.58 82.32C27.82 80.4533 30.5733 78.6333 33.84 76.86C37.1067 75.0867 40.4667 73.5 43.92 72.1C47.4667 70.7 50.78 69.58 53.86 68.74C57.0333 67.8067 59.5067 67.2933 61.28 67.2C61.56 67.2 61.7 67.2933 61.7 67.48C61.7 67.8533 61.42 68.32 60.86 68.88C60.3 69.44 59.7867 69.8133 59.32 70C57.2667 70.56 54.6067 71.4933 51.34 72.8C48.1667 74.0133 44.9467 75.4133 41.68 77C38.5067 78.5867 35.7067 80.22 33.28 81.9C31.88 82.8333 30.9 83.6267 30.34 84.28C29.78 84.84 29.5 85.3067 29.5 85.68C29.5 86.1467 29.8733 86.4267 30.62 86.52C31.46 86.6133 32.1133 86.66 32.58 86.66C39.7667 86.38 46.72 84.7 53.44 81.62C60.16 78.54 66.5067 74.5733 72.48 69.72C78.5467 64.8667 84.0533 59.6867 89 54.18C93.9467 48.6733 98.24 43.26 101.88 37.94C105.52 32.62 108.32 27.9533 110.28 23.94C112.24 19.9267 113.22 17.08 113.22 15.4C113.22 14.7467 113.033 14.3267 112.66 14.14C110.14 12.6467 106.78 11.5267 102.58 10.78C98.4733 9.94 94.2733 9.52 89.98 9.52C82.6067 9.52 74.6267 10.5467 66.04 12.6C57.4533 14.6533 49.0067 17.5467 40.7 21.28C32.3933 25.0133 24.88 29.4467 18.16 34.58C15.92 36.3533 13.9133 38.3133 12.14 40.46C10.46 42.6067 9.34 45.0333 8.78 47.74C8.40667 49.42 8.68667 50.8667 9.62 52.08C10.5533 53.2933 10.9267 54.3667 10.74 55.3C10.74 55.7667 10.5067 56 10.04 56C9.38667 56 8.59333 55.72 7.66 55.16C6.16667 53.9467 4.67333 52.36 3.18 50.4C1.68667 48.3467 0.94 46.0133 0.94 43.4C0.94 39.1067 3.36667 34.6267 8.22 29.96C13.1667 25.2933 19.4667 20.9533 27.12 16.94C24.7867 17.9667 22.4067 19.0867 19.98 20.3C17.5533 21.42 15.08 22.6333 12.56 23.94C12.4667 24.0333 12.3733 24.08 12.28 24.08C12.1867 24.08 12.14 24.08 12.14 24.08C11.9533 24.08 12.0933 23.8933 12.56 23.52C13.12 23.1467 13.6333 22.82 14.1 22.54C19.6067 19.46 25.1133 16.8 30.62 14.56C36.1267 12.2267 41.54 10.1733 46.86 8.4C43.3133 9.61333 39.86 10.9667 36.5 12.46C33.2333 13.86 30.1067 15.3533 27.12 16.94C39.5333 11.4333 51.06 7.60667 61.7 5.46C72.34 3.31333 83.0267 2.19333 93.76 2.09999C94.5067 2.09999 95.02 2.09999 95.3 2.09999C95.58 2.00666 95.72 1.95999 95.72 1.95999C95.72 1.77333 95.3467 1.63333 94.6 1.53999C93.8533 1.44666 93.1067 1.39999 92.36 1.39999C86.2 1.30666 79.34 1.77333 71.78 2.79999C64.3133 3.73333 56.52 5.41333 48.4 7.83999C54.6533 5.88 61 4.24667 67.44 2.94C73.88 1.63333 80.2267 0.793332 86.48 0.419998C87.32 0.326666 88.16 0.28 89 0.28C89.9333 0.28 90.82 0.28 91.66 0.28C96.5133 0.28 101.087 0.746666 105.38 1.68C109.673 2.61333 113.173 4.29333 115.88 6.71999C118.68 9.05333 120.08 12.3667 120.08 16.66C121.667 18.62 122.46 21.14 122.46 24.22C122.46 27.58 121.433 31.4067 119.38 35.7C117.327 39.9 114.48 44.2867 110.84 48.86C107.293 53.4333 103.093 57.96 98.24 62.44C102.907 57.96 107.013 53.2933 110.56 48.44C114.2 43.5867 117.513 37.8933 120.5 31.36C117.98 36.4933 114.9 41.3467 111.26 45.92C107.62 50.4 103.933 54.46 100.2 58.1C96.56 61.6467 93.2467 64.68 90.26 67.2C87.3667 69.6267 85.3133 71.3533 84.1 72.38C81.7667 74.4333 79.1533 76.3467 76.26 78.12C73.3667 79.8 70.66 81.2933 68.14 82.6C65.62 83.8133 63.6133 84.84 62.12 85.68C60.0667 86.7067 58.1067 87.7333 56.24 88.76C54.4667 89.7867 52.9267 90.6733 51.62 91.42C58.9933 88.9 66.32 85.4467 73.6 81.06C80.9733 76.58 87.74 71.68 93.9 66.36C90.54 69.44 87.0867 72.4733 83.54 75.46C81.6733 77.0467 79.06 78.7267 75.7 80.5C72.4333 82.2733 68.9333 84 65.2 85.68C61.56 87.36 58.2467 88.8533 55.26 90.16C52.2733 91.4667 50.1733 92.4 48.96 92.96C48.7733 93.0533 48.9133 92.96 49.38 92.68C49.94 92.4 50.6867 91.98 51.62 91.42C48.1667 92.6333 44.6667 93.6133 41.12 94.36C37.6667 95.1067 34.3067 95.48 31.04 95.48ZM5.84 103.04C4.06667 101.547 2.76 100.053 1.92 98.56C1.17333 97.16 0.8 95.8067 0.8 94.5C0.8 93.7533 0.94 92.96 1.22 92.12C1.96667 89.9733 3.46 87.1733 5.7 83.72C8.03333 80.1733 10.8333 76.2533 14.1 71.96C17.46 67.6667 21.0067 63.2333 24.74 58.66C28.5667 54.0867 32.3 49.6533 35.94 45.36C39.58 40.9733 42.8933 37.0533 45.88 33.6C48.96 30.0533 51.3867 27.2067 53.16 25.06C52.4133 25.4333 51.8067 25.62 51.34 25.62C50.9667 25.62 50.78 25.48 50.78 25.2C50.78 24.8267 51.06 24.36 51.62 23.8C52.6467 22.4933 53.5333 21.42 54.28 20.58C55.0267 19.6467 55.4 19.18 55.4 19.18C55.96 18.9933 56.8933 19.2267 58.2 19.88C59.6 20.44 61.0467 21.2333 62.54 22.26C64.0333 23.1933 65.2467 24.22 66.18 25.34C67.2067 26.3667 67.5333 27.2533 67.16 28C63.9867 31.08 60.3933 34.6733 56.38 38.78C52.3667 42.8867 48.1667 47.32 43.78 52.08C39.3933 56.84 35.0533 61.74 30.76 66.78C26.4667 71.7267 22.4533 76.6267 18.72 81.48C14.9867 86.3333 11.7667 90.86 9.06 95.06L10.74 93.1L22.64 78.96C23.3867 78.12 23.9467 77.56 24.32 77.28C24.6933 76.9067 24.9267 76.72 25.02 76.72C25.1133 76.72 25.16 76.7667 25.16 76.86C25.16 77.14 24.88 77.56 24.32 78.12C22.2667 80.64 20.0267 83.3933 17.6 86.38C15.2667 89.2733 13.0267 92.1667 10.88 95.06C8.73333 97.9533 7.05333 100.613 5.84 103.04ZM132.036 92.68C130.262 91.56 128.722 90.2067 127.416 88.62C126.109 86.94 125.596 85.4933 125.876 84.28C126.062 83.3467 126.669 81.9 127.696 79.94C128.816 77.98 130.122 75.7867 131.616 73.36C133.109 70.9333 134.602 68.46 136.096 65.94C137.682 63.42 139.082 61.18 140.296 59.22C140.482 58.94 140.202 59.3133 139.456 60.34C138.802 61.2733 137.916 62.5333 136.796 64.12C135.769 65.6133 134.742 67.1533 133.716 68.74C132.782 70.2333 132.082 71.3533 131.616 72.1C131.616 71.6333 131.989 70.7467 132.736 69.44C133.576 68.1333 134.509 66.7333 135.536 65.24C136.562 63.6533 137.542 62.16 138.476 60.76C139.409 59.36 140.062 58.38 140.436 57.82C137.916 60.62 135.022 63.7933 131.756 67.34C128.489 70.7933 125.222 74.2 121.956 77.56C118.782 80.92 115.936 83.86 113.416 86.38C110.989 88.9 109.356 90.58 108.516 91.42C105.996 90.58 104.222 89.2733 103.196 87.5C102.169 85.7267 101.656 84 101.656 82.32C101.656 81.3867 101.796 80.5 102.076 79.66C103.102 77.5133 104.502 74.8533 106.276 71.68C108.142 68.4133 110.102 65.1 112.156 61.74C114.209 58.38 116.122 55.2533 117.896 52.36C119.669 49.3733 121.022 47.0867 121.956 45.5C121.862 44.8467 121.536 44.0533 120.976 43.12C120.509 42.1867 120.276 41.3933 120.276 40.74C120.276 39.9933 120.929 39.62 122.236 39.62C122.516 39.62 122.842 39.62 123.216 39.62C123.682 39.62 124.196 39.7133 124.756 39.9C125.409 39.9933 126.436 40.2733 127.836 40.74C129.236 41.2067 130.496 41.9067 131.616 42.84C132.829 43.68 133.436 44.8467 133.436 46.34C133.436 47.3667 133.109 48.3933 132.456 49.42C131.336 50.7267 129.982 52.5933 128.396 55.02C126.902 57.4467 125.362 60.0133 123.776 62.72C122.282 65.4267 120.882 67.9467 119.576 70.28C118.362 72.52 117.522 74.1533 117.056 75.18C117.802 74.7133 119.156 73.5467 121.116 71.68C123.076 69.8133 125.316 67.5733 127.836 64.96C130.449 62.3467 133.062 59.7333 135.676 57.12C138.289 54.4133 140.622 52.1267 142.676 50.26C142.676 49.8867 143.142 48.9067 144.076 47.32C145.102 45.64 146.269 43.8667 147.576 42C148.976 40.1333 150.142 38.78 151.076 37.94C152.289 38.4067 153.596 39.06 154.996 39.9C156.489 40.6467 157.749 41.4867 158.776 42.42C159.896 43.26 160.456 44.1 160.456 44.94C160.456 45.3133 160.316 45.7333 160.036 46.2C156.956 50.4933 154.062 54.5067 151.356 58.24C148.649 61.88 146.409 64.9133 144.636 67.34C142.862 69.7667 141.836 71.3067 141.556 71.96C142.302 71.3067 143.142 70.6067 144.076 69.86C145.569 68.46 147.716 66.92 150.516 65.24C153.969 63 157.936 60.7133 162.416 58.38C166.989 55.9533 171.796 53.9467 176.836 52.36C177.676 52.08 178.329 51.94 178.796 51.94C179.636 51.94 179.822 52.3133 179.356 53.06C178.889 53.7133 178.142 54.46 177.116 55.3C176.182 56.14 175.202 56.7933 174.176 57.26C169.136 59.78 164.376 62.4867 159.896 65.38C155.416 68.2733 151.309 71.4933 147.576 75.04C144.776 77.6533 142.209 80.5467 139.876 83.72C137.542 86.8 134.929 89.7867 132.036 92.68ZM143.376 70.56C143.376 70.6533 143.656 70.6067 144.216 70.42C144.776 70.14 145.196 69.9067 145.476 69.72C147.436 68.2267 149.909 66.64 152.896 64.96C155.976 63.1867 158.962 61.5533 161.856 60.06C164.749 58.5667 166.849 57.54 168.156 56.98C168.902 56.7 169.882 56.2333 171.096 55.58C172.402 54.9267 172.822 54.6933 172.356 54.88C170.956 55.2533 168.996 56 166.476 57.12C164.049 58.1467 161.389 59.4067 158.496 60.9C155.696 62.3 153.036 63.7467 150.516 65.24C149.302 66.08 148.136 66.92 147.016 67.76C145.989 68.5067 145.009 69.2067 144.076 69.86C143.889 70.0467 143.702 70.2333 143.516 70.42L143.376 70.56ZM195.181 102.06C192.941 102.06 190.841 100.707 188.881 98C187.108 95.5733 185.568 92.4 184.261 88.48C182.955 84.56 182.301 80.5933 182.301 76.58C182.301 75.8333 182.301 75.1333 182.301 74.48C182.395 73.7333 182.488 73.0333 182.581 72.38C182.861 70.7 183.748 69.5333 185.241 68.88C186.828 68.1333 187.948 67.9 188.601 68.18C188.788 68.18 189.021 68.2267 189.301 68.32C189.581 68.4133 189.908 68.5533 190.281 68.74C192.428 67.7133 194.995 65.8 197.981 63C200.968 60.2 203.488 56.9333 205.541 53.2C206.755 51.0533 207.361 49.6067 207.361 48.86C207.361 48.02 206.755 47.9733 205.541 48.72C204.421 49.4667 203.161 50.4467 201.761 51.66C200.455 52.78 199.428 53.6667 198.681 54.32C192.988 59.4533 187.481 64.1667 182.161 68.46C176.841 72.7533 172.315 77.42 168.581 82.46C167.275 84.2333 166.155 85.82 165.221 87.22C164.288 88.5267 163.728 89.7867 163.541 91C161.301 89.4133 159.808 87.92 159.061 86.52C158.315 85.12 157.941 83.7667 157.941 82.46C157.941 81.7133 158.035 81.0133 158.221 80.36C158.315 79.7067 158.455 79.0533 158.641 78.4C159.201 76.44 160.648 73.5 162.981 69.58C165.408 65.66 168.348 61.18 171.801 56.14C175.255 51.1 178.941 45.8733 182.861 40.46C186.781 35.0467 190.561 29.8667 194.201 24.92C197.841 19.9733 201.061 15.6333 203.861 11.9C206.661 8.16666 208.621 5.50666 209.741 3.91999C209.275 4.2 208.901 4.43333 208.621 4.61999C208.435 4.71333 208.015 5.13333 207.361 5.87999C206.801 6.53333 205.728 7.84 204.141 9.79999C201.808 12.7867 200.548 14.28 200.361 14.28C200.268 14.28 200.548 13.7667 201.201 12.74C201.855 11.7133 202.695 10.4533 203.721 8.96C204.748 7.37333 205.775 5.87999 206.801 4.48C207.828 3.08 208.621 2.05333 209.181 1.39999C209.741 0.839995 210.161 0.559996 210.441 0.559996C210.628 0.559996 210.861 0.653328 211.141 0.839993C211.515 0.93333 212.028 1.07333 212.681 1.26C213.428 1.44666 214.455 2.09999 215.761 3.22C217.161 4.34 218.328 5.6 219.261 7C220.288 8.30666 220.615 9.47333 220.241 10.5C219.121 11.62 217.348 13.58 214.921 16.38C212.495 19.18 209.601 22.4933 206.241 26.32C202.975 30.1467 199.521 34.2533 195.881 38.64C192.241 42.9333 188.648 47.2267 185.101 51.52C181.555 55.72 178.288 59.64 175.301 63.28C172.315 66.8267 169.888 69.8133 168.021 72.24C166.155 74.6667 165.081 76.16 164.801 76.72C165.735 76.2533 167.368 74.9 169.701 72.66C172.128 70.42 175.021 67.7133 178.381 64.54C181.741 61.2733 185.335 57.9133 189.161 54.46C192.988 50.9133 196.815 47.6467 200.641 44.66C204.561 41.58 208.248 39.1533 211.701 37.38C213.008 37.38 214.455 37.94 216.041 39.06C217.721 40.18 218.701 41.3 218.981 42.42C220.568 43.1667 221.361 44.38 221.361 46.06C221.361 47.74 220.615 49.56 219.121 51.52C217.721 53.48 216.321 55.1133 214.921 56.42C214.268 57.0733 213.568 57.68 212.821 58.24C212.168 58.8 211.468 59.36 210.721 59.92C212.308 58.3333 213.801 56.56 215.201 54.6C216.695 52.64 218.141 50.4467 219.541 48.02C219.728 47.5533 219.775 47.04 219.681 46.48C219.681 45.8267 219.495 45.92 219.121 46.76C217.628 50.12 215.715 53.2 213.381 56C211.048 58.8 208.575 61.32 205.961 63.56C206.708 63.0933 207.455 62.58 208.201 62.02C209.041 61.3667 209.835 60.7133 210.581 60.06C208.528 62.3933 206.428 64.3533 204.281 65.94C202.135 67.4333 200.128 68.6467 198.261 69.58C198.075 69.6733 197.888 69.7667 197.701 69.86C197.515 69.9533 197.375 70 197.281 70L199.101 68.74C201.435 67.1533 203.721 65.4267 205.961 63.56C203.161 65.4267 200.641 66.92 198.401 68.04C196.161 69.16 194.388 69.9533 193.081 70.42C194.108 71.0733 194.528 71.82 194.341 72.66C194.248 73.3133 194.155 74.8067 194.061 77.14C193.968 79.38 193.921 81.76 193.921 84.28C193.921 85.68 193.921 87.0333 193.921 88.34C193.921 89.5533 193.968 90.6733 194.061 91.7C194.248 95.5267 195.321 97.44 197.281 97.44C198.215 97.44 199.568 96.7867 201.341 95.48C201.901 95.0133 202.368 94.78 202.741 94.78C202.928 94.78 203.021 94.92 203.021 95.2C203.021 96.6933 202.181 98.1867 200.501 99.68C198.821 101.267 197.048 102.06 195.181 102.06ZM226.03 91.98C223.977 91.98 221.784 91.1867 219.45 89.6C217.117 88.0133 215.11 86.1467 213.43 84C211.844 81.8533 211.05 79.8933 211.05 78.12C211.05 74.76 212.03 71.1667 213.99 67.34C216.044 63.42 218.657 59.5933 221.83 55.86C225.097 52.1267 228.55 48.8133 232.19 45.92C235.83 43.0267 239.33 40.9267 242.69 39.62C243.624 39.2467 244.464 39.0133 245.21 38.92C245.957 38.8267 246.517 38.78 246.89 38.78C248.01 38.78 249.317 39.5733 250.81 41.16C252.304 42.6533 253.657 44.2867 254.87 46.06C256.084 47.8333 256.784 49.1867 256.97 50.12C256.97 51.6133 256.084 53.4333 254.31 55.58C252.63 57.6333 250.39 59.78 247.59 62.02C244.79 64.1667 241.757 66.1733 238.49 68.04C235.317 69.9067 232.237 71.4 229.25 72.52C226.264 73.5467 223.697 74.0133 221.55 73.92C220.057 76.6267 219.31 78.8667 219.31 80.64C219.31 81.5733 219.544 82.4133 220.01 83.16C220.477 83.8133 221.41 84.0933 222.81 84C225.05 83.2533 227.85 81.9 231.21 79.94C234.57 77.98 238.164 75.7867 241.99 73.36C245.91 70.84 249.737 68.4133 253.47 66.08C257.297 63.6533 260.704 61.6467 263.69 60.06C265.277 59.22 266.444 58.8 267.19 58.8C267.844 58.8 268.17 59.0333 268.17 59.5C268.17 59.8733 267.75 60.48 266.91 61.32C266.164 62.16 264.997 63 263.41 63.84C262.57 64.3067 261.637 64.8667 260.61 65.52C259.584 66.1733 258.51 66.92 257.39 67.76C254.777 69.6267 251.977 71.7733 248.99 74.2C246.097 76.6267 243.157 79.0533 240.17 81.48C237.277 83.9067 234.57 86.0533 232.05 87.92C229.624 89.7867 227.617 91.14 226.03 91.98ZM224.49 69.3C227.29 68.2733 230.277 66.8267 233.45 64.96C236.624 63.0933 239.61 61.1333 242.41 59.08C245.21 56.9333 247.45 55.02 249.13 53.34L249.83 52.64C249.83 52.4533 249.27 52.78 248.15 53.62L236.39 62.3C236.297 62.3933 236.157 62.44 235.97 62.44C235.877 62.44 235.924 62.3467 236.11 62.16C236.297 61.88 236.624 61.6 237.09 61.32C238.957 60.0133 240.87 58.5667 242.83 56.98C244.79 55.3 246.657 53.7133 248.43 52.22C250.67 50.4467 251.79 49.3733 251.79 49C249.644 49 246.89 50.0267 243.53 52.08C240.17 54.1333 236.764 56.7 233.31 59.78C229.95 62.86 227.01 66.0333 224.49 69.3ZM274.715 36.26C275.275 34.86 276.349 32.62 277.935 29.54C279.522 26.46 281.295 23.1 283.255 19.46C285.215 15.7267 287.035 12.2267 288.715 8.96C290.395 5.6 291.609 3.03333 292.355 1.26C292.635 0.606665 293.195 0.28 294.035 0.28C295.062 0.28 296.229 0.746666 297.535 1.68C298.935 2.61333 299.682 3.59333 299.775 4.61999C299.775 5.27333 299.355 6.39333 298.515 7.97999C297.675 9.47333 296.649 11.1067 295.435 12.88C294.222 14.6533 293.055 16.3333 291.935 17.92C290.909 19.4133 290.115 20.4867 289.555 21.14C289.275 21.5133 289.135 21.7467 289.135 21.84C289.135 21.84 289.182 21.8867 289.275 21.98L288.155 23.38C287.315 24.3133 286.429 25.2467 285.495 26.18C284.655 27.1133 283.955 27.9533 283.395 28.7C283.302 28.8867 283.022 29.3533 282.555 30.1C282.089 30.7533 281.949 30.9867 282.135 30.8C284.002 28.9333 285.775 27.02 287.455 25.06C285.495 27.86 283.395 30.3333 281.155 32.48C278.915 34.6267 276.769 35.8867 274.715 36.26ZM287.455 25.06C287.735 24.6867 288.015 24.3133 288.295 23.94C288.575 23.5667 288.809 23.1933 288.995 22.82C289.275 22.3533 289.369 22.0733 289.275 21.98C290.395 20.58 291.749 18.8067 293.335 16.66C294.922 14.5133 296.369 12.5533 297.675 10.78C298.982 8.91333 299.729 7.74666 299.915 7.27999C300.009 7.18666 300.055 7.13999 300.055 7.13999C300.055 7.04666 300.055 7 300.055 7C300.149 7 300.195 7.14 300.195 7.42C300.195 8.16666 300.055 8.67999 299.775 8.96C299.589 9.33333 298.982 10.1733 297.955 11.48C297.022 12.7867 295.949 14.28 294.735 15.96C293.522 17.64 292.309 19.2267 291.095 20.72C289.975 22.2133 289.089 23.3333 288.435 24.08L287.455 25.06ZM298.688 95.9C296.915 95.9 294.675 95.2467 291.968 93.94C289.262 92.6333 286.695 91.0467 284.268 89.18C281.935 87.3133 280.302 85.6333 279.368 84.14C278.248 82.18 277.688 80.5467 277.688 79.24C277.688 78.4933 277.922 78.12 278.388 78.12C279.228 78.12 280.442 79.1 282.028 81.06C282.682 81.9 283.895 82.74 285.668 83.58C287.535 84.3267 289.588 84.98 291.828 85.54C294.162 86.1 296.308 86.38 298.268 86.38C298.735 86.38 299.108 86.38 299.388 86.38C299.762 86.38 300.135 86.3333 300.508 86.24C300.415 84.0933 299.482 81.9 297.708 79.66C295.935 77.3267 293.882 74.9 291.548 72.38C289.308 69.86 287.348 67.2933 285.668 64.68C284.455 62.8133 283.848 60.8533 283.848 58.8C283.848 56 284.968 53.34 287.208 50.82C289.448 48.3 292.202 46.0133 295.468 43.96C296.308 43.4933 297.148 43.0267 297.988 42.56C298.828 42.0933 299.668 41.6733 300.508 41.3C299.015 41.7667 297.522 42.3267 296.028 42.98C294.535 43.6333 293.135 44.3333 291.828 45.08H291.688C291.595 45.08 291.688 44.9867 291.968 44.8C292.248 44.52 292.482 44.3333 292.668 44.24C296.402 41.8133 300.322 40.1333 304.428 39.2C308.628 38.2667 312.315 37.8 315.488 37.8C316.235 37.8 316.935 37.8467 317.588 37.94C318.242 37.94 318.848 37.9867 319.408 38.08C319.688 38.1733 319.875 38.3133 319.968 38.5C320.062 38.6867 319.875 38.78 319.408 38.78L321.788 39.62C322.628 39.9933 323.375 41.2067 324.028 43.26C324.775 45.22 325.288 46.9933 325.568 48.58C325.662 48.4867 325.708 48.3933 325.708 48.3C325.895 47.8333 325.988 47.46 325.988 47.18C325.988 46.8067 326.035 46.4333 326.128 46.06C326.222 45.8733 326.455 46.2 326.828 47.04C327.202 47.7867 327.528 48.6733 327.808 49.7C328.182 50.6333 328.368 51.4267 328.368 52.08C328.275 53.76 327.668 55.58 326.548 57.54C325.428 59.5 324.215 61.04 322.908 62.16C321.695 63.28 320.668 63.5133 319.828 62.86C320.855 61.74 321.648 60.4333 322.208 58.94C320.155 61.8333 317.682 64.3533 314.788 66.5C311.988 68.5533 309.748 69.58 308.068 69.58C307.228 69.58 306.808 69.3467 306.808 68.88C306.808 68.6 306.995 68.2267 307.368 67.76C307.835 67.2933 308.162 67.0133 308.348 66.92C309.282 66.36 310.448 65.4267 311.848 64.12C313.248 62.72 314.648 61.1333 316.048 59.36C317.448 57.5867 318.662 55.86 319.688 54.18C320.808 52.5 321.555 51.1 321.928 49.98C321.928 48.3933 320.808 47.6 318.568 47.6C317.262 47.6 315.722 47.8333 313.948 48.3C312.268 48.7667 310.542 49.3267 308.768 49.98C305.315 51.1933 302.142 52.8267 299.248 54.88C296.355 56.9333 294.908 59.1733 294.908 61.6C294.908 62.5333 295.188 63.5133 295.748 64.54C297.522 67.2467 299.342 70.0467 301.208 72.94C303.075 75.8333 304.662 78.4933 305.968 80.92C307.275 83.2533 307.928 85.0733 307.928 86.38C307.928 86.94 307.508 87.7333 306.668 88.76C305.922 89.7867 304.988 90.8133 303.868 91.84C302.842 92.96 301.815 93.8933 300.788 94.64C299.855 95.48 299.155 95.9 298.688 95.9Z" fill="#EBEBD3"/>
</svg>
